{
  "accessors": [
    {
      "bufferView": 2,
      "componentType": 5126,
      "count": 1760,
      "max": [
        0.9999997019767761,
        0.8776745796203613,
        0.9999994039535522
      ],
      "min": [
        -0.9999990463256836,
        -1.0,
        -0.9999987483024597
      ],
      "type": "VEC3"
    },
    {
      "bufferView": 2,
      "byteOffset": 21120,
      "componentType": 5126,
      "count": 1760,
      "max": [
        0.9904384613037109,
        0.880972146987915,
        0.9904385805130005
      ],
      "min": [
        -0.9904386401176453,
        -0.9951384663581848,
        -0.9904389381408691
      ],
      "type": "VEC3"
    },
    {
      "bufferView": 1,
      "componentType": 5126,
      "count": 1760,
      "max": [
        1.0000001192092896,
        0.8437501788139343
      ],
      "min": [
        0.0,
        0.0
      ],
      "type": "VEC2"
    },
    {
      "bufferView": 0,
      "componentType": 5125,
      "count": 2592,
      "type": "SCALAR"
    },
    {
      "bufferView": 2,
      "byteOffset": 42240,
      "componentType": 5126,
      "count": 96,
      "max": [
        0.1950903683900833,
        0.9813650846481323,
        0.1950904130935669
      ],
      "min": [
        -0.19509027898311615,
        0.9807852506637573,
        -0.19509032368659973
      ],
      "type": "VEC3"
    },
    {
      "bufferView": 2,
      "byteOffset": 43392,
      "componentType": 5126,
      "count": 96,
      "max": [
        0.0029721162281930447,
        0.9999956488609314,
        0.0029721183236688375
      ],
      "min": [
        -0.002972119953483343,
        0.9999955296516418,
        -0.0029721162281930447
      ],
      "type": "VEC3"
    },
    {
      "bufferView": 1,
      "byteOffset": 14080,
      "componentType": 5126,
      "count": 96,
      "max": [
        1.0000001192092896,
        1.0
      ],
      "min": [
        8.940696716308594e-08,
        0.9375000596046448
      ],
      "type": "VEC2"
    },
    {
      "bufferView": 0,
      "byteOffset": 10368,
      "componentType": 5125,
      "count": 96,
      "type": "SCALAR"
    },
    {
      "bufferView": 2,
      "byteOffset": 44544,
      "componentType": 5126,
      "count": 256,
      "max": [
        0.46912682056427,
        0.9807852506637573,
        0.46912682056427
      ],
      "min": [
        -0.4691266119480133,
        0.8776745796203613,
        -0.4691268503665924
      ],
      "type": "VEC3"
    },
    {
      "bufferView": 2,
      "byteOffset": 47616,
      "componentType": 5126,
      "count": 256,
      "max": [
        0.4708895981311798,
        0.9565495848655701,
        0.47088974714279175
      ],
      "min": [
        -0.47088974714279175,
        0.8809720873832703,
        -0.4708893895149231
      ],
      "type": "VEC3"
    },
    {
      "bufferView": 1,
      "byteOffset": 14848,
      "componentType": 5126,
      "count": 256,
      "max": [
        1.0000001192092896,
        0.9375000596046448
      ],
      "min": [
        1.4901161193847656e-08,
        0.8437498807907104
      ],
      "type": "VEC2"
    },
    {
      "bufferView": 0,
      "byteOffset": 10752,
      "componentType": 5125,
      "count": 384,
      "type": "SCALAR"
    }
  ],
  "asset": {
    "extras": {
      "author": "BurritoDog (https://sketchfab.com/burritodog)",
      "license": "CC-BY-4.0 (http://creativecommons.org/licenses/by/4.0/)",
      "source": "https://sketchfab.com/3d-models/low-poly-eyeball-82ce133e9b8b4c26a11b48aea473299b",
      "title": "Low Poly Eyeball"
    },
    "generator": "Sketchfab-12.74.0",
    "version": "2.0"
  },
  "bufferViews": [
    {
      "buffer": 0,
      "byteLength": 12288,
      "name": "floatBufferViews",
      "target": 34963
    },
    {
      "buffer": 0,
      "byteLength": 16896,
      "byteOffset": 12288,
      "byteStride": 8,
      "name": "floatBufferViews",
      "target": 34962
    },
    {
      "buffer": 0,
      "byteLength": 50688,
      "byteOffset": 29184,
      "byteStride": 12,
      "name": "floatBufferViews",
      "target": 34962
    }
  ],
  "buffers": [
    {
      "byteLength": 79872,
      "uri": "scene.bin"
    }
  ],
  "materials": [
    {
      "doubleSided": true,
      "name": "Eye_outside",
      "pbrMetallicRoughness": {
        "metallicFactor": 0.0,
        "roughnessFactor": 0.5
      }
    },
    {
      "doubleSided": true,
      "name": "Eye_outline",
      "pbrMetallicRoughness": {
        "baseColorFactor": [
          0.0,
          0.0,
          0.0,
          1.0
        ],
        "metallicFactor": 0.0,
        "roughnessFactor": 0.5
      }
    },
    {
      "doubleSided": true,
      "name": "Eye_inside",
      "pbrMetallicRoughness": {
        "baseColorFactor": [
          0.104278,
          0.481725,
          0.754827,
          1.0
        ],
        "metallicFactor": 0.0,
        "roughnessFactor": 0.5
      }
    }
  ],
  "meshes": [
    {
      "name": "Object_0",
      "primitives": [
        {
          "attributes": {
            "NORMAL": 1,
            "POSITION": 0,
            "TEXCOORD_0": 2
          },
          "indices": 3,
          "material": 0,
          "mode": 4
        }
      ]
    },
    {
      "name": "Object_1",
      "primitives": [
        {
          "attributes": {
            "NORMAL": 5,
            "POSITION": 4,
            "TEXCOORD_0": 6
          },
          "indices": 7,
          "material": 1,
          "mode": 4
        }
      ]
    },
    {
      "name": "Object_2",
      "primitives": [
        {
          "attributes": {
            "NORMAL": 9,
            "POSITION": 8,
            "TEXCOORD_0": 10
          },
          "indices": 11,
          "material": 2,
          "mode": 4
        }
      ]
    }
  ],
  "nodes": [
    {
      "children": [
        1
      ],
      "matrix": [
        1.0,
        0.0,
        0.0,
        0.0,
        0.0,
        2.220446049250313e-16,
        -1.0,
        0.0,
        0.0,
        1.0,
        2.220446049250313e-16,
        0.0,
        0.0,
        0.0,
        0.0,
        1.0
      ],
      "name": "Sketchfab_model"
    },
    {
      "children": [
        2
      ],
      "name": "root"
    },
    {
      "children": [
        3
      ],
      "matrix": [
        1.0,
        0.0,
        0.0,
        0.0,
        0.0,
        2.220446049250313e-16,
        1.0,
        0.0,
        0.0,
        -1.0,
        2.220446049250313e-16,
        0.0,
        0.0,
        0.0,
        0.0,
        1.0
      ],
      "name": "GLTF_SceneRootNode"
    },
    {
      "children": [
        4,
        5,
        6
      ],
      "matrix": [
        1.0,
        0.0,
        0.0,
        0.0,
        0.0,
        1.0,
        0.0,
        0.0,
        0.0,
        0.0,
        1.0,
        0.0,
        0.0,
        1.0,
        0.0,
        1.0
      ],
      "name": "Sphere_0"
    },
    {
      "mesh": 0,
      "name": "Object_4"
    },
    {
      "mesh": 1,
      "name": "Object_5"
    },
    {
      "mesh": 2,
      "name": "Object_6"
    }
  ],
  "scene": 0,
  "scenes": [
    {
      "name": "Sketchfab_Scene",
      "nodes": [
        0
      ]
    }
  ]
}
